<?xml version="1.0" encoding="utf-8"?>
<!-- Generator: Adobe Illustrator 22.1.0, SVG Export Plug-In . SVG Version: 6.00 Build 0)  -->
<svg version="1.1" id="Layer_1" xmlns="http://www.w3.org/2000/svg" xmlns:xlink="http://www.w3.org/1999/xlink" x="0px" y="0px"
	 viewBox="0 0 100 100" style="enable-background:new 0 0 100 100;" xml:space="preserve">
<style type="text/css">
	.st0{fill:#FFFFFF;}
</style>
<title>2Artboard 71</title>
<path class="st0" d="M98,11v24H86V14H65V2h24C94,2,98,6,98,11z M2,11v24h12V14h21V2H11C6,2,2,6,2,11z M35,98V86H14V65H2v24
	c0,5,4,9,9,9H35z M86,86H65v12h24c5,0,9-4,9-9V65H86V86z M44,29v15H29v12h15v15h12V56h15V44H56V29H44z"/>
</svg>
