<?xml version="1.0" encoding="utf-8"?>
<!-- Generator: Adobe Illustrator 22.1.0, SVG Export Plug-In . SVG Version: 6.00 Build 0)  -->
<svg version="1.1" xmlns="http://www.w3.org/2000/svg" xmlns:xlink="http://www.w3.org/1999/xlink" x="0px" y="0px"
	 viewBox="0 0 100 72.3" style="enable-background:new 0 0 100 72.3;" xml:space="preserve">
<style type="text/css">
	.st0{fill:#FFFFFF;}
</style>
<g id="Layer_2">
</g>
<g id="Layer_1">
	<g>
		<path class="st0" d="M44.3,51.8c-0.1,0.1-0.5,0.3-0.6,0.3c-1.2,0.5-2.5,0.9-4,1.1c-0.3,0-1.3,0.1-1.4,0.1c-0.7,0-1.3,0.6-1.2,1.3
			c0,0.7,0.6,1.2,1.3,1.2c0.5,0,1.4-0.1,1.7-0.1c1.8-0.2,3.3-0.7,4.7-1.3c0.1,0,0.6-0.3,0.7-0.4c0.6-0.3,0.9-1.1,0.5-1.7
			C45.7,51.7,44.9,51.5,44.3,51.8z"/>
		<path class="st0" d="M51.5,42.9c-0.1,0.1-0.4,0.6-0.4,0.6c-0.4,0.6-0.7,1.2-1.1,1.7c-0.6,0.9-1.1,1.9-1.8,2.8c0,0-0.3,0.5-0.4,0.5
			c-0.4,0.6-0.3,1.4,0.2,1.8c0.2,0.2,0.5,0.3,0.8,0.3c0.4,0,0.8-0.2,1-0.5c0.1-0.1,0.4-0.6,0.5-0.6c0.7-1,1.3-2,1.9-3
			c0.3-0.6,0.7-1.1,1-1.7c0,0,0.3-0.5,0.4-0.6c0.4-0.6,0.2-1.4-0.3-1.8C52.7,42.2,51.9,42.4,51.5,42.9z"/>
		<path class="st0" d="M27.1,51.2c1.3,1.6,2.9,2.9,4.7,3.7c0.1,0,0.8,0.4,1.2,0.4c0.5,0,1-0.3,1.2-0.9c0.2-0.7-0.1-1.4-0.8-1.6
			c-0.1,0-0.5-0.2-0.6-0.2c-1.5-0.6-2.7-1.6-3.7-2.9c0,0-0.3-0.4-0.4-0.5c-0.4-0.6-1.2-0.7-1.8-0.3s-0.7,1.2-0.3,1.8
			C26.7,50.6,27,51.1,27.1,51.2z"/>
		<path class="st0" d="M55.7,38.8c-0.6,0.4-0.8,1.1-0.5,1.8c0.2,0.4,0.7,0.6,1.1,0.6c0.2,0,0.4-0.1,0.6-0.2c0.1-0.1,0.5-0.3,0.5-0.3
			c0.8-0.4,1.7-0.6,2.6-0.8c0.7-0.1,1.4-0.2,2.1-0.2c0.1,0,0.7,0,0.7,0l0,0c0.7,0,1.3-0.6,1.3-1.3s-0.6-1.3-1.3-1.3c0,0-0.7,0-0.8,0
			c-0.8,0-1.6,0.1-2.4,0.2c-1.2,0.2-2.4,0.5-3.4,1C56.4,38.5,55.9,38.7,55.7,38.8z"/>
		<path class="st0" d="M73.8,43c-0.5-1-1.8-2.9-4.3-4.3c-0.1,0-0.6-0.3-0.7-0.4c-0.6-0.3-1.4,0-1.7,0.6s0,1.4,0.6,1.7
			c0.1,0,0.5,0.3,0.6,0.3c1.9,1,2.9,2.4,3.3,3.2c0,0.1,0.2,0.4,0.2,0.4c0.2,0.5,0.7,0.8,1.2,0.8c0.1,0,0.3,0,0.4-0.1
			c0.7-0.2,1-1,0.8-1.6C74.1,43.7,73.8,43.1,73.8,43z"/>
		<path class="st0" d="M76.9,46.6c-0.5-0.5-1.4-0.4-1.8,0.2l-1.3,1.6l-1.4-1.3c-0.5-0.5-1.3-0.4-1.8,0.1s-0.4,1.3,0.1,1.8l1.5,1.4
			l-1.4,1.7c-0.5,0.5-0.4,1.4,0.2,1.8c0.2,0.2,0.5,0.3,0.8,0.3c0.4,0,0.7-0.2,1-0.5l1.3-1.6l1.6,1.5c0.2,0.2,0.6,0.3,0.9,0.3
			c0.4,0,0.7-0.1,1-0.4c0.5-0.5,0.4-1.3-0.1-1.8l-1.7-1.5l1.4-1.7C77.5,47.9,77.4,47.1,76.9,46.6z"/>
		<path class="st0" d="M28.2,45.1c0-1.1-0.9-2-2-2H25c-1.1,0-2,0.9-2,2s0.9,2,2,2h1.2C27.3,47.2,28.2,46.3,28.2,45.1z"/>
		<path class="st0" d="M98.8,66.6L80.5,26.5c-0.3-0.7-0.9-1.1-1.7-1.1H59.1c-0.6,1.2-1.3,2.5-1.9,3.7h20.4l16.7,36.4H5.7l16.7-36.4
			h20.3l-1.9-3.7H21.2c-0.7,0-1.4,0.4-1.7,1.1L1.2,66.6c-0.3,0.6-0.2,1.2,0.1,1.8c0.3,0.5,0.9,0.8,1.5,0.8h94.3
			c0.6,0,1.2-0.3,1.5-0.8C99,67.8,99.1,67.2,98.8,66.6z"/>
		<path class="st0" d="M48.6,32.7c0.6,1.1,2.2,1.1,2.7,0c0,0,6.4-12.5,7.9-15.5c1.5-2.9,1.5-6.3,0-9.3c-2.6-5.1-8.8-7.2-13.9-4.6
			c-5.1,2.6-7.1,9-4.6,13.9C43.2,22.1,48.6,32.7,48.6,32.7z M50,7.2c3,0,5.4,2.4,5.4,5.4S53,18,50,18s-5.4-2.4-5.4-5.4
			S47,7.2,50,7.2z"/>
	</g>
</g>
</svg>
