<?xml version="1.0" encoding="utf-8"?>
<!-- Generator: Adobe Illustrator 22.1.0, SVG Export Plug-In . SVG Version: 6.00 Build 0)  -->
<svg version="1.1" id="Layer_1" xmlns="http://www.w3.org/2000/svg" xmlns:xlink="http://www.w3.org/1999/xlink" x="0px" y="0px"
	 viewBox="0 0 94.2 82.8" style="enable-background:new 0 0 94.2 82.8;" xml:space="preserve">
<style type="text/css">
	.st0{fill:#FFFFFF;}
</style>
<g>
	<g>
		<path class="st0" d="M71.2,12.4"/>
	</g>
	<g>
		<g>
			<path class="st0" d="M89.4,14.9H71.2c-1.4,0-1.4-5,0-5h15.1C85.4,8.2,83.6,7,81.5,7C80.1,7,79,5.9,79,4.5S80.1,2,81.5,2
				c5.7,0,10.4,4.6,10.4,10.4C91.9,13.7,90.8,14.9,89.4,14.9z"/>
		</g>
		<g>
			<path class="st0" d="M60.1,80.2H12.9c-5.7,0-10.4-4.7-10.4-10.4c0-1.4,1.1-2.5,2.5-2.5h47.2c1.4,0,2.5,1.1,2.5,2.5
				c0,3,2.4,5.4,5.4,5.4C61.5,75.2,61.5,80.2,60.1,80.2z M8.2,72.3c0.9,1.7,2.7,2.9,4.7,2.9h38.3c-0.5-0.9-0.9-1.8-1.2-2.9H8.2z"/>
		</g>
		<g>
			<path class="st0" d="M59.2,80.2H15.9c-1.4,0-2.5-1.1-2.5-2.5s1.1-2.5,2.5-2.5h43.3c5.2,0,9.5-4.2,9.5-9.5V14.6
				c0-2.8,0.9-5.5,2.5-7.6H26c-4.2,0-7.6,3.4-7.6,7.6v55.2h-5V14.6C13.4,7.6,19.1,2,26,2h55.2c1.4,0,2.5,1.1,2.5,2.5S82.6,7,81.2,7
				c-4.2,0-7.6,3.4-7.6,7.6v51.1C73.7,73.7,67.2,80.2,59.2,80.2z"/>
		</g>
	</g>
</g>
</svg>
